<?xml version="1.0" encoding="UTF-8" standalone="no"?>
<!DOCTYPE svg PUBLIC "-//W3C//DTD SVG 1.1//EN"
 "http://www.w3.org/Graphics/SVG/1.1/DTD/svg11.dtd">
<!-- Generated by graphviz version 2.40.1 (20161225.0304)
 -->
<!-- Title: G Pages: 1 -->
<svg width="284pt" height="87pt"
 viewBox="0.00 0.00 283.54 87.30" xmlns="http://www.w3.org/2000/svg" xmlns:xlink="http://www.w3.org/1999/xlink">
<g id="graph0" class="graph" transform="scale(1 1) rotate(0) translate(21.6 65.6986)">
<title>G</title>
<polygon fill="#111111" stroke="transparent" points="-21.6,21.6 -21.6,-65.6986 261.9447,-65.6986 261.9447,21.6 -21.6,21.6"/>
<!-- a.js -->
<g id="node1" class="node">
<title>a.js</title>
<path fill="none" stroke="#ff6c60" d="M142.2788,-44.1482C142.2788,-44.1482 104.4106,-44.1482 104.4106,-44.1482 100.3777,-44.1482 96.3447,-40.1152 96.3447,-36.0823 96.3447,-36.0823 96.3447,-28.0164 96.3447,-28.0164 96.3447,-23.9834 100.3777,-19.9505 104.4106,-19.9505 104.4106,-19.9505 142.2788,-19.9505 142.2788,-19.9505 146.3118,-19.9505 150.3447,-23.9834 150.3447,-28.0164 150.3447,-28.0164 150.3447,-36.0823 150.3447,-36.0823 150.3447,-40.1152 146.3118,-44.1482 142.2788,-44.1482"/>
<text text-anchor="middle" x="123.3447" y="-28.8986" font-family="Arial" font-size="14.00" fill="#ff6c60">a.js</text>
</g>
<!-- b.js -->
<g id="node2" class="node">
<title>b.js</title>
<path fill="none" stroke="#ff6c60" d="M232.2788,-44.1482C232.2788,-44.1482 194.4106,-44.1482 194.4106,-44.1482 190.3777,-44.1482 186.3447,-40.1152 186.3447,-36.0823 186.3447,-36.0823 186.3447,-28.0164 186.3447,-28.0164 186.3447,-23.9834 190.3777,-19.9505 194.4106,-19.9505 194.4106,-19.9505 232.2788,-19.9505 232.2788,-19.9505 236.3118,-19.9505 240.3447,-23.9834 240.3447,-28.0164 240.3447,-28.0164 240.3447,-36.0823 240.3447,-36.0823 240.3447,-40.1152 236.3118,-44.1482 232.2788,-44.1482"/>
<text text-anchor="middle" x="213.3447" y="-28.8986" font-family="Arial" font-size="14.00" fill="#ff6c60">b.js</text>
</g>
<!-- a.js&#45;&gt;b.js -->
<g id="edge1" class="edge">
<title>a.js&#45;&gt;b.js</title>
<path fill="none" stroke="#757575" d="M150.3477,-25.804C158.3724,-25.3297 167.3113,-25.1897 175.8756,-25.384"/>
<polygon fill="#757575" stroke="#757575" points="175.9191,-28.8884 186.0498,-25.7869 176.1961,-21.8939 175.9191,-28.8884"/>
</g>
<!-- b.js&#45;&gt;a.js -->
<g id="edge2" class="edge">
<title>b.js&#45;&gt;a.js</title>
<path fill="none" stroke="#757575" d="M186.0498,-38.3117C178.0031,-38.7779 169.0579,-38.9098 160.5028,-38.7074"/>
<polygon fill="#757575" stroke="#757575" points="160.4816,-35.2037 150.3477,-38.2946 160.1973,-42.1979 160.4816,-35.2037"/>
</g>
<!-- main.js -->
<g id="node3" class="node">
<title>main.js</title>
<path fill="none" stroke="#c6c5fe" d="M52.4522,-24.1482C52.4522,-24.1482 7.8925,-24.1482 7.8925,-24.1482 3.8596,-24.1482 -.1734,-20.1152 -.1734,-16.0823 -.1734,-16.0823 -.1734,-8.0164 -.1734,-8.0164 -.1734,-3.9834 3.8596,.0495 7.8925,.0495 7.8925,.0495 52.4522,.0495 52.4522,.0495 56.4851,.0495 60.5181,-3.9834 60.5181,-8.0164 60.5181,-8.0164 60.5181,-16.0823 60.5181,-16.0823 60.5181,-20.1152 56.4851,-24.1482 52.4522,-24.1482"/>
<text text-anchor="middle" x="30.1724" y="-8.8986" font-family="Arial" font-size="14.00" fill="#c6c5fe">main.js</text>
</g>
<!-- main.js&#45;&gt;a.js -->
<g id="edge3" class="edge">
<title>main.js&#45;&gt;a.js</title>
<path fill="none" stroke="#757575" d="M60.4228,-18.5427C68.6722,-20.3135 77.704,-22.2523 86.2854,-24.0943"/>
<polygon fill="#757575" stroke="#757575" points="85.5664,-27.5196 96.0783,-26.1964 87.0356,-20.6755 85.5664,-27.5196"/>
</g>
<!-- main.js&#45;&gt;b.js -->
<g id="edge4" class="edge">
<title>main.js&#45;&gt;b.js</title>
<path fill="none" stroke="#757575" d="M60.5131,-8.9879C84.9404,-7.1955 120.0707,-6.1365 150.3447,-11.0493 159.0151,-12.4563 168.1046,-14.8858 176.5959,-17.6046"/>
<polygon fill="#757575" stroke="#757575" points="175.6337,-20.9743 186.2282,-20.8852 177.8905,-14.348 175.6337,-20.9743"/>
</g>
</g>
</svg>
